<svg xmlns="http://www.w3.org/2000/svg" viewBox="0 0 407 500">
    <defs />
    <g>
      <path fill="#e3ba84" d="M196 7c.527 5.307 1.896 8.713 2 15-2.399.696-15.112 7.343-16 9-3.597 6.711 1.952 11.413-9 12-4.225-5.637-15.68-5.727-17-14 4.587-2.818 7.757-7.981 12-11 2.83-2.015 5.919-2.142 9-4 .333-.667.667-1.334 1-2h3c5.816-3.089 4.967-4.919 15-5zM215 10c8.443-.081 12.807 1.684 20 2 8.242 13.049 18.178 8.825 18 32-1.871.687-3.91.978-7 1-6.584-8.623-33.558-13.656-34-27 1.587-1.801 2.091-5.598 3-8zM202 27c6.616-.008 17.597 6.214 19 11 1.937 2.45.16 7.183 1 11 .417 1.896 1.709 4.475 0 7-1.589 2.347-16.915 7.577-21 8-4.874-5.572-17.278-15.553-18-24 4.882-2.592 16.069-8.774 19-13zM151 42c5.533.236 22.162 9.526 23 14 1.513 2.73-5.794 18.959-7 24-6.519 3.576-13.874 8.344-23 9-2.085-4.565-10.921-28.553-9-32 1.836-5.403 12.107-10.597 16-15zM272 42c2.518.023 3.75-.018 5 1 3.788.984 7.911 4.191 9 8 1.617 2.087 5.557 20.24 6 24-5.16 5.208-4.607 14.899-15 15-4.784-9.685-21.409-18.456-22-30 6.1-3.715 13.276-11.915 17-18zM122 56c2.854.65 2.962.448 4 3 2.247 2.897 1.099 20.497 1 26-3.625 2.305-17.9676 10.885-21 4-1.5221-1.839-2.3131-13.498-2-14 2.0687-6.884 13.335-13.745 18-19zM223 62c7.109-.218 26.209 6.08 28 10v6c2.151 2.413 2.642 9.067 3 13-8.959 7.851-17.195 15.799-27 23-3.982 2.924-4.631 7.001-11 8-3.367-6.043-8.403-11.354-12-17-.333-1.333-.667-2.667-1-4-3.746-5.647-9.499-8.943-10-18 6.113-3.694 10.242-12.843 15-16 4.193-2.783 11.344-1.753 15-5zM313 78c7.211 2.185 9.047 10.497 14 15-.106 8.727-2.397 16.135-4 24-2.082 1.114-1.795 1.535-5 2-2.78-4.523-18.067-22.222-16-26 1.592-5.944 7.365-10.77 11-15zM88 91h5c3.0752 11.138 16.2328 18.935 17 32-6.0482 4.87-5.0469 18.25-15 19-2.3619-3.906-7.8453-7.682-10-11-.6666-3-1.3334-6.001-2-9-2.1659-6.335-5.4341-13.17-6-21 3.3346-2.725 8.6604-6.351 11-10zM119 96c7.011-.114 34.448-1.728 38 1 2.003.55 16.332 11.542 17 13v5c-6.889 3.408-11.137 9.805-17 14-3.042 2.176-6.936 2.967-9 6-3.136 4.608-2.657 11.578-9 13-2.475 2.049-7.285.605-10 0-.84-2.192-2.439-6.124-3-8v-7c-.581-1.662-3.16-3.65-4-5-6.193-9.956-9.525-19.512-3-32zM286 106h6c2.82 10.526 12.419 17.21 14 29-5.329 3.107-10.752 8.088-16 11h-3c-1.621.9-5.379 5.102-7 6h-3c-4.711 2.588-6.753 6.398-14 7-4.665-8.434-18.06-25.101-19-35 8.844-4.596 19.77-9.003 29-13 4.512-1.954 9.707-1.931 13-5zM209 126c8.444 1.878 17.297 12.411 24 17 3.381 2.315 5.122 3.349 8 6h2v5c-9.038 6.009-20.423 30.602-31 32-3.643-3.619-9.862-3.79-15-6-3.573-1.537-8.432-4.449-12-6-1.956-.851-5.699-.772-7-2-1.763-1.664-1.671-4.826-3-7-.667-.334-1.333-.667-2-1v-3c-3.693-6.724-10.861-12.846-12-22 8.158-4.242 20.8-5.871 30-9 6.122-2.082 13.782-.207 18-4zM348 136h4c4.227 6.774 9.031 8.262 9 20-2 2.527-1.113 10.702-1 15-8.056 4.37-20.055 12.598-30 14-.333-1-.667-2-1-3-1.084-1.424.306-23.921 2-26 2.585-8.85 12.474-12.792 17-20zM63 139h5v1h1c1.0764 9.837 6.4465 16.994 7 28-4.6962 2.698-7.4671 7.424-14 8-3.5934-6.049-9.3416-11.234-10-20 3.4-2.473 9.0057-12.875 11-17zM104 149h5c5.584 8.599 26.533 15.464 28 26-4.573 2.852-6.833 7.692-10 12-2.333 2-4.667 4-7 6v2c-2.899 3.943-7.754 7.274-11 11h-1v-1c-5.1995-1.591-7.0947-7.043-10-11-4.4044-6-16.7042-14.737-18-23 4.253-3.661 8.5881-9.748 13-13 3.8012-2.802 8.3249-5.174 11-9zM295 160h6c5.994 8.233 14.138 6.717 14 22 1.624 2.085.532 3.422 0 6-9.633 4.557-16.713 13.953-25 20-3.354 2.447-7.307 3.948-10 7-6.795-2.467-14.713-4.431-21-7h-4c-2.61-1.721-1.778-7.671-3-11-2.293-6.246-5.812-12.718-6-21 10.834-4.587 24.669-8.109 36-12 4.805-1.65 9.92-.82 13-4zM53 175c4.743 1.11 4.9328 3.741 8 6h2l9 10h2c1.9998 2.333 4.0002 4.667 6 7 3.7209 2.753 7.1296 3.29 8 9-6.404 5.888-14.5114 25.252-24 26-2.9826-5.276-7.6856-9.268-11-14-1.1971-1.709-.7924-3.301-2-5-1.3332-1-2.6668-2-4-3-1.2067-1.697-.8011-3.296-2-5-1.3332-1-2.6668-2-4-3v-5c4.5638-4.493 4.7962-12.015 8-18 .6449-1.205 3.0798-3.398 4-5zM172 182c7.986.693 14.918 5.176 21 8h4c.935.444 6.891 3.253 8 4 2 2.333 4 4.667 6 7 3.203 3.204 6.584 3.761 7 10-5.145 3.151-9.233 8.531-14 12-5.033 3.662-9.892 6.365-15 10-5.03 3.579-6.475 8.557-15 9-3.015-3.817-8.37-3.642-13-6-6.349-3.234-13.675-7.716-20-11-1.666-.334-3.334-.667-5-1-2.276-1.735-9.517-19.934-10-24 8.61-4.468 20.167-7.99 29-12 5.734-2.603 13.01-1.828 17-6zM357 195h4c.333.666.667 1.333 1 2 3.304 3.732 3.084 21.51 3 29-5.847 3.175-12.901 7.215-19 10h-3c-4.812 2.466-7.456 5.614-15 6-2.63-7.351-1.064-20.829-1-30 5.521-2.383 10.148-6.334 15-9 5.284-2.904 11.238-3.709 15-8zM114 220c8.176.967 13.967 7.668 20 11 3.569 1.971 6.634 1.888 10 4 1.181.741 2.796 3.328 4 4 5.923 3.304 14.411 3.381 15 12-3.361 1.909-5.167 4.926-8 7-6.583 4.816-12.415 9.186-19 14-3.991 2.918-4.108 6.382-11 7-3.484-4.894-9.551-7.025-14-11-10.8519-9.696-21.839-19.589-33-29 .6146-1.921.0102-.883 1-2 3.6282-7.2 29.899-10.256 35-17zM245 220h58c2.571 4.789 4.759 9.717 5 17-2.541 1.607-3.75 4.349-6 6-8.24 6.046-14.798 12.966-23 19-2.932 2.157-5.224 7.953-9 9-4.452 1.234-8.561-3.753-11-5-9.419-4.817-18.309-7.446-32-8-4.332-7.127-12.536-14.362-13-25 6.701-2.744 27.027-8.819 31-13zM30 227h4c4.716 7.637 21.1555 20.874 22 30-2.5041 1.955-8.0117 14.47-10 18-1.921-.615-.883-.01-2-1-4.4296-1.523-3.726-4.413-6-8-4.8143-7.594-14.5218-14.702-15-26 3.0698-2.964 5.1473-9.006 7-13zM360 241c3.663 1.672 4.113 2.447 4 8-4.089 3.095-5.173 8.548-8 13-3.772 5.939-9.063 12.106-13 18-2.812 4.21-2.836 9.014-9 10-7.242-7.144-27.942-8.969-28-22-1.542-1.799-1.873-4.789-2-8 11.182-5.812 26.921-9.419 39-14 5.253-1.993 13.245-1.793 17-5zM376 253c4.342 2.693 12.209 14.885 13 21-6.255 6.289-13.971 32.656-21 35-2.263 1.534-15.318.118-21 0-1.214-2.258-1.734-2.239-2-6 3.326-3.112 3.621-6.712 6-11 .667-.334 1.333-.667 2-1 1.881-2.937 2.1-5.937 4-9 .667-.334 1.333-.667 2-1 1.62-2.611 1.383-5.388 3-8 4.251-6.866 8.78-14.061 14-20zM28 263c2.0457 1.053 2.0493.645 3 3 1.912 2.248 3.6966 27.888 3 29-1.054 3.381-1.7314 3.011-6 3-3.2233-5.139-8.6558-6.979-9-15 4.1015-4.278 3.0159-13.588 7-18 .758-.945 1.242-1.056 2-2zM190 264c9.566.106 19.346 2.703 27 5h7c9.353 2.843 22.196 4.788 32 7 .563 1.526.723 1.66 1 4-3.503 2.349-5.716 6.585-9 9-9.373 6.891-17.643 14.135-27 21-4.087 2.998-5.758 7.945-12 9-2.016-2.694-9.928-7.294-13-9-1.333-.334-2.667-.667-4-1-8.799-5.461-18.246-11.562-27-17-4.767-2.962-13.824-4.829-16-10-.928-1.123-.658-.845-1-3 7.86-3.344 18.02-6.936 26-10 5.418-2.08 12.009-1.556 16-5zM57 269c7.5643.401 11.6656 4.635 17 7 4.6616 2.066 7.1616 2.641 11 5h2c1.8215 1.423 1.8502 4.814 3 7 3.5487 6.746 8.9509 13.125 9 23-4.2634 3.073-5.0984 8.477-8 13-1.1693 1.822-3.6021 3.337-5 5-1.921-.615-.883-.01-2-1-4.0298-1.176-4.2285-3.958-7-6-7.3099-5.387-13.6836-10.623-21-16-1.6665-2-3.3335-4-5-6-4.326-3.192-9.1359-4.249-10-11 2.5074-1.603 15.0911-16.997 16-20zM286 291c11.279-.254 22.71 1.572 32 4 7.495 1.959 15.131-1.119 20 3 .964 1.182.839 1.645 1 4-4.882 3.041-7.828 8.258-12 12-1 .333-2 .666-3 1-4.666 4.999-9.334 10-14 15h-2c-4.154 3.057-3.947 7.355-11 8-3.716-3.597-9.012-3.456-14-6-5.171-2.638-11.634-6.626-17-9-5.122-2.266-11.955-2.753-15-7-2.71-2.897-3.086-7.222-3-13 7.886-1.572 16.827-5.428 24-8 4.947-1.774 10.597-.877 14-4zM14 301c8.3687 1.828 16.656 11.4 23 16 1.8197 1.319 5.0868 2.011 6 4v6c-2.2087 2.859-2.2971 11.156-3 15-1.6068.589-2.3834.847-5 1-3.4429-4.733-9.2205-7.522-14-11-.9999-1.333-2.0001-2.667-3-4-.6645-.486-5.8177-2.729-6-3v-23c1.921-.615.883-.01 2-1zM144 309c18.454-.584 35.974 4.748 48 11 5.424 2.819 11.702 1.768 12 10-6.999 5.666-14.001 11.334-21 17-1.695 2.51-1.431 5.394-3 8-.667.333-1.333.666-2 1v3c-1.739 3.196-5.084 6.793-7 10-1.921-.615-.883-.01-2-1-6.37-1.622-11.926-6.84-17-10-2.606-1.623-5.39-1.383-8-3-3.614-2.241-8.291-5.956-12-8h-3c-2.861-1.591-6.906-5.291-10-7-5.779-3.192-16.8408-5.382-18-13 5.3984-4.092 10.2401-7.946 16-12 1.294-.911 2.339-3.382 4-4 5.451-2.029 19.016 1.02 23-2zM385 314c2.376.512 3.144 1.146 5 2 .271 5.542 4.254 15.734 1 20-.909 3.276-9.912 13.999-13 15-2.752 2.185-6.98.175-11 0-5.877-.256-25.849-2.09-29-5-.945-.758-1.056-1.242-2-2 .333-1 .667-2 1-3 7.881-3.681 13.308-11.155 20-16h2c1.333-.946 2.353-3.248 4-4 6.175-2.819 17.734-2.646 22-7z" />
      <path fill="#e3ba84" d="M83 413c-.3153-4.718-.7905-6.797 0-11 5.6661-2.333 11.3339-4.667 17-7 5.153-1.318 8.347 1.857 11 3h3c1.858.805 5.15 3.169 7 4h3c4.67 2.384 11.003 5.827 16 8 3.477 1.512 15.722 4.43 17 7v13c5.211 1.337 9.493 4.636 15 6 2.339-3.937 8.488-10.461 13-12h17c2.905-.702 18.98-2.648 23-1 .333.666.667 1.333 1 2h3c3.829 1.737 8.176 5.248 12 7h3c.333.666.667 1.333 1 2 2.083 1.097 5.028.84 7 2 2.144 1.261 1.835 2.986 5 4 5.673-7.451 27.317-13.548 38-17h5l3-2c1.667.333 3.333.666 5 1 0 0 1.562-4.667 2-5 .613-.467 7.351-3.702 8-4h3c3.601-1.836 8.255-5.35 12-7 8.999-3 18.001-6.001 27-9 1.451-1.896.38-13.151 2-16 2.405-4.231 10.014-6.122 14-9 6.077-4.388 5.6-16.106 15-17 .668 1.39.996 3.599 2 5h2v17h-4c-4.68 6.272-23.419 11.615-25 19 1.538 2.613-5.804 17.087-7 22l-12 6c1.196 4.854-.783 4.453-3 8-1.516 2.425-1.367 4.759-3 7-3.338 4.58-10.926 6.05-16 9-5.673 3.298-6.224 13.657-12 17-5.009 2.899-12.045 1.914-18 4-3.802 1.331-10.582 4.335-15 5-2.571.386-4.791-2.253-7-1-4.328 2.711-5.683 8.265-11 10h-6c-4.998 1.328-13.31 1.851-18 3-5.383 1.319-8.468-2.367-11-1-1.635 1.679-2.164 6.723-4 8h-25c-1.656-5.362-7.559-7.204-15-7-8.647 7.856-23.008 1.097-31-2-2-.334-4-.667-6-1-2.666-3-5.334-6.001-8-9-7.666-.334-15.334-.667-23-1-1.236-.453-11.2805-6.979-12-8-1.6506-2.344-1.4696-6.692-4-8h-7c-2.7621-1.237-5.5628-5.292-8-7-4.5803-3.211-9.4137-4.797-14-8-.6666-1-1.3334-2-2-3-2.1605-1.516-9.0004-3.94-10-6v-13c3.9263-3.173 3.3409-3.664 3-10h-3v4c-1.2786.621-2.1006 1.027-3 2-5.3328-1-10.6672-2-16-3-6.666-6.999-13.334-14.001-20-21 3.087-8.653 5.9013-18.358 8-27-5.3555-3.042-8.837-7.776-13-12h-2v-14c3.4527-1.371 2.5932-2.768 8-3 4.8186 6.574 19.635 10.28 21 19-2.3303 1.58-8.1271 8.075-9 11h1c2.4075 2.417 4.7117 2.191 8 4 .3333.666.6667 1.333 1 2 3.4144 2.073 6.4088 2.028 10 4 .3333.666.6667 1.333 1 2 4.0221 2.437 7.8112 2.699 12 5 .3333.666.6667 1.333 1 2 4.4173 2.682 10.2986 2.596 12 8 2.4223 3.095.1572 12.493 0 18 2.0817 1.114 1.7951 1.535 5 2z" />
      <path fill="#e3ba84" d="M78 338c11.6685 4.86 23.1672 11.273 34 17 4.482 2.369 13.095 3.441 15 8 .964 1.182.839 1.645 1 4-1.51.756-9.41 5.996-10 7-3.041 5.175 1.375 13.558-5 16-2.8203 2.522-11.122 2.917-16 3-3.0225-4.784-7.4585-7.655-12-11-2.6664-3-5.3336-6.001-8-9-6.01-3.578-15.0248-3.497-19-9-2.8024-3.164-5.8193-15.18-6-21 .9999-.334 2.0001-.667 3-1 5.0613-3.985 17.881-.013 23-4zM256 340c12.41-.442 18.902 2.911 27 6 5.577 2.126 12.782.634 15 6 .964 1.182.839 1.645 1 4-8.332 7.999-16.668 16.001-25 24-1.667 2-3.333 4-5 6h-4c-7.285 2.87-15.552 6.645-25 7-4.166-4.409-9.902-6.439-15-10-.667-1-1.333-2-2-3h-2c-3.075-2.089-6.057-5.562-10-7-7.93-2.892-21.208-.114-22-10 5.877-2.599 10.897-6.8 16-10 2.598-1.63 5.392-1.385 8-3 .333-.667.667-1.334 1-2 2-.667 4-1.334 6-2 .333-.667.667-1.334 1-2h9c4.986-1.326 22.574-1.29 26-4zM369 361v5c-4.757 3.342-7.534 9.275-11 14-2.333 2-4.667 4-7 6v2c-3.254 4.381-28.915 15.69-37 16l-7-14c-5.391-3.735-12.717-2.855-15-10h1c2.133-4.868 12.979-7.365 18-10 3.545-1.861 8.176-5.332 12-7 3.049-1.33 5.038-.523 8-2 .779-.389 2.841-2.655 4-3 2.566-.764 5.962.745 7 1h17c2.514.638 6.9 1.674 10 2zM158 374c10.822-.331 18.171 3.319 26 6 2.666.333 5.334.666 8 1 4.896 1.692 12.194 4.275 17 6 6.759 2.426 14.807-.016 16 8-5.443 4.862-8.624 12.027-13 18-2 1.666-4 3.333-6 5-5.828.162-8.204.985-12 2h-10c-1.824.475-4.86 2.967-8 2-1.61-.496-3.701-3.291-5-4h-3c-.333-.667-.667-1.334-1-2-2.636-1.597-5.383-1.378-8-3-.333-.667-.667-1.334-1-2-2-.667-4-1.334-6-2-.333-.667-.667-1.334-1-2-2.854-1.567-19.219-8.559-20-10v-5c3.185-3.343 2.357-10.043 7-12 4.965-3.854 15.355-1.842 20-6zM279 391h6v1c2.171.948 17.418 8.158 18 9v4c-9.299 5.089-18.801 11.965-28 17h-3c-5.431 2.974-9.481 7.921-17 9-1.769-1.797-3.694-1.564-6-3-.333-.667-.667-1.334-1-2-2-.667-4-1.334-6-2-5.216-3.236-11.355-7.075-16-11v-2c8.242-4.741 18.855-14.185 28-17 7.021-2.162 20.074.887 25-3z" />
    </g>
  </svg>
